<svg width="24" height="24" viewBox="0 0 24 24" fill="none" xmlns="http://www.w3.org/2000/svg">
<path d="M16.0002 6.99998C16.0002 6.4477 16.4479 5.99998 17.0002 5.99998C17.5525 5.99998 18.0002 6.4477 18.0002 6.99998C18.0002 7.55227 17.5525 7.99998 17.0002 7.99998C16.4479 7.99998 16.0002 7.55227 16.0002 6.99998Z" fill="#121212"/>
<path fill-rule="evenodd" clip-rule="evenodd" d="M12.0002 7.24998C9.37683 7.24998 7.25018 9.37663 7.25018 12C7.25018 14.6233 9.37683 16.75 12.0002 16.75C14.6235 16.75 16.7502 14.6233 16.7502 12C16.7502 9.37663 14.6235 7.24998 12.0002 7.24998ZM8.75018 12C8.75018 10.2051 10.2053 8.74998 12.0002 8.74998C13.7951 8.74998 15.2502 10.2051 15.2502 12C15.2502 13.7949 13.7951 15.25 12.0002 15.25C10.2053 15.25 8.75018 13.7949 8.75018 12Z" fill="#121212"/>
<path fill-rule="evenodd" clip-rule="evenodd" d="M17.2584 2.833C13.7919 2.44556 10.2085 2.44556 6.74195 2.833C4.7299 3.05788 3.10556 4.64289 2.86901 6.66542C2.45447 10.2097 2.45447 13.7903 2.86901 17.3346C3.10556 19.3571 4.7299 20.9421 6.74195 21.167C10.2085 21.5544 13.7919 21.5544 17.2584 21.167C19.2705 20.9421 20.8948 19.3571 21.1314 17.3346C21.5459 13.7903 21.5459 10.2097 21.1314 6.66542C20.8948 4.64289 19.2705 3.05788 17.2584 2.833ZM6.90856 4.32372C10.2644 3.94865 13.736 3.94865 17.0918 4.32372C18.4219 4.47238 19.4874 5.52199 19.6415 6.83967C20.0425 10.2682 20.0425 13.7318 19.6415 17.1603C19.4874 18.478 18.4219 19.5276 17.0918 19.6762C13.736 20.0513 10.2644 20.0513 6.90856 19.6762C5.57846 19.5276 4.51297 18.478 4.35885 17.1603C3.95786 13.7318 3.95786 10.2682 4.35885 6.83967C4.51297 5.52199 5.57845 4.47238 6.90856 4.32372Z" fill="#121212"/>
</svg>
